STARTFONT 2.1
FONT -B&H-Lucida Bright-DemiBold-I-Normal--8-80-72-72-P-48-ISO8859-1
SIZE 8 72 72
FONTBOUNDINGBOX 14 10 -4 -2

STARTPROPERTIES 22
FONTNAME_REGISTRY "-"
FOUNDRY "B&H"
FAMILY_NAME "Lucida Bright"
WEIGHT_NAME "DemiBold"
SLANT "I"
SETWIDTH_NAME "Normal"
ADD_STYLE_NAME ""
PIXEL_SIZE 8
POINT_SIZE 80
RESOLUTION_X 72
RESOLUTION_Y 72
SPACING "P"
CHARSET_REGISTRY "ISO8859"
CHARSET_ENCODING "1"
FULL_NAME "LucidaBright-DemiItalic"
AVERAGE_WIDTH 48
WEIGHT 10
X_HEIGHT 4
QUAD_WIDTH 5
DEFAULT_CHAR 32
FONT_DESCENT 2
FONT_ASCENT 8
ENDPROPERTIES

CHARS 190

STARTCHAR space
ENCODING 32
SWIDTH 333 0
DWIDTH 3 0
BBX 1 1 0 0
BITMAP
00
ENDCHAR

STARTCHAR exclam
ENCODING 33
SWIDTH 265 0
DWIDTH 2 0
BBX 2 6 0 0
BITMAP
40
40
40
40
00
80
ENDCHAR

STARTCHAR quotedbl
ENCODING 34
SWIDTH 451 0
DWIDTH 4 0
BBX 3 2 1 4
BITMAP
A0
A0
ENDCHAR

STARTCHAR numbersign
ENCODING 35
SWIDTH 636 0
DWIDTH 5 0
BBX 5 6 1 0
BITMAP
50
50
F8
50
F8
50
ENDCHAR

STARTCHAR dollar
ENCODING 36
SWIDTH 636 0
DWIDTH 5 0
BBX 4 8 1 -1
BITMAP
10
70
60
20
20
D0
E0
40
ENDCHAR

STARTCHAR percent
ENCODING 37
SWIDTH 772 0
DWIDTH 6 0
BBX 6 6 1 0
BITMAP
64
A8
D0
3C
54
D8
ENDCHAR

STARTCHAR ampersand
ENCODING 38
SWIDTH 773 0
DWIDTH 6 0
BBX 6 6 1 0
BITMAP
38
28
7C
B4
98
F8
ENDCHAR

STARTCHAR quoteright
ENCODING 39
SWIDTH 265 0
DWIDTH 2 0
BBX 2 3 1 3
BITMAP
C0
C0
80
ENDCHAR

STARTCHAR parenleft
ENCODING 40
SWIDTH 336 0
DWIDTH 3 0
BBX 3 8 1 -2
BITMAP
20
40
40
80
80
80
80
80
ENDCHAR

STARTCHAR parenright
ENCODING 41
SWIDTH 336 0
DWIDTH 3 0
BBX 3 8 0 -2
BITMAP
20
20
20
20
20
40
40
80
ENDCHAR

STARTCHAR asterisk
ENCODING 42
SWIDTH 434 0
DWIDTH 3 0
BBX 3 4 1 2
BITMAP
A0
60
C0
A0
ENDCHAR

STARTCHAR plus
ENCODING 43
SWIDTH 636 0
DWIDTH 5 0
BBX 5 5 1 0
BITMAP
20
20
F8
20
60
ENDCHAR

STARTCHAR comma
ENCODING 44
SWIDTH 265 0
DWIDTH 2 0
BBX 2 3 0 -2
BITMAP
C0
40
80
ENDCHAR

STARTCHAR minus
ENCODING 45
SWIDTH 636 0
DWIDTH 5 0
BBX 5 1 1 2
BITMAP
F8
ENDCHAR

STARTCHAR period
ENCODING 46
SWIDTH 265 0
DWIDTH 2 0
BBX 2 1 0 0
BITMAP
C0
ENDCHAR

STARTCHAR slash
ENCODING 47
SWIDTH 515 0
DWIDTH 4 0
BBX 6 8 0 -2
BITMAP
0C
08
10
30
20
40
40
80
ENDCHAR

STARTCHAR zero
ENCODING 48
SWIDTH 623 0
DWIDTH 5 0
BBX 5 6 1 0
BITMAP
30
58
98
90
90
60
ENDCHAR

STARTCHAR one
ENCODING 49
SWIDTH 636 0
DWIDTH 5 0
BBX 3 6 1 0
BITMAP
60
20
20
60
40
E0
ENDCHAR

STARTCHAR two
ENCODING 50
SWIDTH 636 0
DWIDTH 5 0
BBX 5 6 1 0
BITMAP
70
48
18
20
40
F0
ENDCHAR

STARTCHAR three
ENCODING 51
SWIDTH 636 0
DWIDTH 5 0
BBX 4 6 1 0
BITMAP
70
10
60
10
10
E0
ENDCHAR

STARTCHAR four
ENCODING 52
SWIDTH 636 0
DWIDTH 5 0
BBX 5 6 1 0
BITMAP
10
30
50
D0
F8
30
ENDCHAR

STARTCHAR five
ENCODING 53
SWIDTH 636 0
DWIDTH 5 0
BBX 5 6 1 0
BITMAP
78
40
60
10
90
E0
ENDCHAR

STARTCHAR six
ENCODING 54
SWIDTH 636 0
DWIDTH 5 0
BBX 5 6 1 0
BITMAP
38
40
F0
90
90
60
ENDCHAR

STARTCHAR seven
ENCODING 55
SWIDTH 636 0
DWIDTH 5 0
BBX 4 6 1 0
BITMAP
F0
10
20
40
C0
80
ENDCHAR

STARTCHAR eight
ENCODING 56
SWIDTH 636 0
DWIDTH 5 0
BBX 5 6 1 0
BITMAP
38
48
70
90
90
F0
ENDCHAR

STARTCHAR nine
ENCODING 57
SWIDTH 636 0
DWIDTH 5 0
BBX 5 6 1 0
BITMAP
70
48
D8
78
90
E0
ENDCHAR

STARTCHAR colon
ENCODING 58
SWIDTH 265 0
DWIDTH 2 0
BBX 2 4 0 0
BITMAP
40
00
00
80
ENDCHAR

STARTCHAR semicolon
ENCODING 59
SWIDTH 265 0
DWIDTH 2 0
BBX 2 6 0 -2
BITMAP
40
00
00
C0
80
80
ENDCHAR

STARTCHAR less
ENCODING 60
SWIDTH 636 0
DWIDTH 5 0
BBX 6 4 2 0
BITMAP
0C
F0
30
08
ENDCHAR

STARTCHAR equal
ENCODING 61
SWIDTH 636 0
DWIDTH 5 0
BBX 5 2 1 1
BITMAP
F8
F8
ENDCHAR

STARTCHAR greater
ENCODING 62
SWIDTH 636 0
DWIDTH 5 0
BBX 6 4 0 0
BITMAP
40
30
3C
C0
ENDCHAR

STARTCHAR question
ENCODING 63
SWIDTH 493 0
DWIDTH 4 0
BBX 4 6 1 0
BITMAP
E0
B0
60
C0
00
80
ENDCHAR

STARTCHAR at
ENCODING 64
SWIDTH 861 0
DWIDTH 7 0
BBX 6 6 1 0
BITMAP
38
44
BC
B4
E8
70
ENDCHAR

STARTCHAR A
ENCODING 65
SWIDTH 765 0
DWIDTH 6 0
BBX 6 6 0 0
BITMAP
18
38
28
78
CC
CC
ENDCHAR

STARTCHAR B
ENCODING 66
SWIDTH 651 0
DWIDTH 5 0
BBX 5 6 0 0
BITMAP
78
28
70
48
58
F0
ENDCHAR

STARTCHAR C
ENCODING 67
SWIDTH 740 0
DWIDTH 6 0
BBX 6 6 1 0
BITMAP
3C
48
C0
80
C0
78
ENDCHAR

STARTCHAR D
ENCODING 68
SWIDTH 822 0
DWIDTH 7 0
BBX 7 6 0 0
BITMAP
7C
24
66
44
4C
F8
ENDCHAR

STARTCHAR E
ENCODING 69
SWIDTH 630 0
DWIDTH 5 0
BBX 5 6 0 0
BITMAP
78
20
70
40
40
F8
ENDCHAR

STARTCHAR F
ENCODING 70
SWIDTH 602 0
DWIDTH 5 0
BBX 5 6 0 0
BITMAP
78
20
70
40
40
E0
ENDCHAR

STARTCHAR G
ENCODING 71
SWIDTH 780 0
DWIDTH 6 0
BBX 6 6 1 0
BITMAP
3C
48
C0
9C
C8
70
ENDCHAR

STARTCHAR H
ENCODING 72
SWIDTH 827 0
DWIDTH 7 0
BBX 7 6 0 0
BITMAP
76
24
7C
44
44
EC
ENDCHAR

STARTCHAR I
ENCODING 73
SWIDTH 372 0
DWIDTH 3 0
BBX 4 6 0 0
BITMAP
70
20
60
40
40
E0
ENDCHAR

STARTCHAR J
ENCODING 74
SWIDTH 478 0
DWIDTH 4 0
BBX 5 8 0 -2
BITMAP
38
10
10
20
20
20
A0
C0
ENDCHAR

STARTCHAR K
ENCODING 75
SWIDTH 746 0
DWIDTH 6 0
BBX 6 6 0 0
BITMAP
74
28
50
70
48
DC
ENDCHAR

STARTCHAR L
ENCODING 76
SWIDTH 611 0
DWIDTH 5 0
BBX 5 6 0 0
BITMAP
70
20
60
40
48
F8
ENDCHAR

STARTCHAR M
ENCODING 77
SWIDTH 926 0
DWIDTH 7 0
BBX 8 6 0 0
BITMAP
63
26
6E
5A
54
CE
ENDCHAR

STARTCHAR N
ENCODING 78
SWIDTH 797 0
DWIDTH 6 0
BBX 7 6 0 0
BITMAP
66
24
54
54
4C
C8
ENDCHAR

STARTCHAR O
ENCODING 79
SWIDTH 831 0
DWIDTH 7 0
BBX 6 6 1 0
BITMAP
38
44
C4
84
88
70
ENDCHAR

STARTCHAR P
ENCODING 80
SWIDTH 628 0
DWIDTH 5 0
BBX 5 6 0 0
BITMAP
78
28
48
70
40
E0
ENDCHAR

STARTCHAR Q
ENCODING 81
SWIDTH 835 0
DWIDTH 7 0
BBX 7 8 1 -2
BITMAP
38
44
C4
84
88
78
10
0E
ENDCHAR

STARTCHAR R
ENCODING 82
SWIDTH 711 0
DWIDTH 6 0
BBX 5 6 0 0
BITMAP
78
28
78
50
48
C8
ENDCHAR

STARTCHAR S
ENCODING 83
SWIDTH 587 0
DWIDTH 5 0
BBX 5 6 1 0
BITMAP
78
48
60
30
90
E0
ENDCHAR

STARTCHAR T
ENCODING 84
SWIDTH 716 0
DWIDTH 6 0
BBX 6 6 1 0
BITMAP
FC
20
20
20
60
E0
ENDCHAR

STARTCHAR U
ENCODING 85
SWIDTH 775 0
DWIDTH 6 0
BBX 6 6 1 0
BITMAP
EC
48
C8
88
88
F0
ENDCHAR

STARTCHAR V
ENCODING 86
SWIDTH 741 0
DWIDTH 6 0
BBX 6 6 1 0
BITMAP
CC
44
48
50
50
20
ENDCHAR

STARTCHAR W
ENCODING 87
SWIDTH 922 0
DWIDTH 7 0
BBX 7 6 1 0
BITMAP
D2
D2
72
7C
48
48
ENDCHAR

STARTCHAR X
ENCODING 88
SWIDTH 672 0
DWIDTH 5 0
BBX 6 6 0 0
BITMAP
74
2C
30
50
48
D8
ENDCHAR

STARTCHAR Y
ENCODING 89
SWIDTH 669 0
DWIDTH 5 0
BBX 5 6 1 0
BITMAP
C8
48
50
20
40
E0
ENDCHAR

STARTCHAR Z
ENCODING 90
SWIDTH 684 0
DWIDTH 5 0
BBX 5 6 1 0
BITMAP
78
58
30
20
48
F0
ENDCHAR

STARTCHAR bracketleft
ENCODING 91
SWIDTH 336 0
DWIDTH 3 0
BBX 3 8 0 -2
BITMAP
60
40
40
40
40
80
80
C0
ENDCHAR

STARTCHAR backslash
ENCODING 92
SWIDTH 515 0
DWIDTH 4 0
BBX 3 8 1 -2
BITMAP
80
80
80
40
40
40
40
60
ENDCHAR

STARTCHAR bracketright
ENCODING 93
SWIDTH 336 0
DWIDTH 3 0
BBX 3 8 0 -2
BITMAP
60
20
20
20
40
40
40
C0
ENDCHAR

STARTCHAR asciicircum
ENCODING 94
SWIDTH 636 0
DWIDTH 5 0
BBX 5 6 0 1
BITMAP
10
10
30
50
50
88
ENDCHAR

STARTCHAR underscore
ENCODING 95
SWIDTH 500 0
DWIDTH 4 0
BBX 3 1 0 -1
BITMAP
E0
ENDCHAR

STARTCHAR quoteleft
ENCODING 96
SWIDTH 265 0
DWIDTH 2 0
BBX 2 3 1 3
BITMAP
40
80
80
ENDCHAR

STARTCHAR a
ENCODING 97
SWIDTH 634 0
DWIDTH 5 0
BBX 5 4 1 0
BITMAP
78
50
B0
D8
ENDCHAR

STARTCHAR b
ENCODING 98
SWIDTH 633 0
DWIDTH 5 0
BBX 5 7 1 0
BITMAP
40
40
40
78
F8
D0
E0
ENDCHAR

STARTCHAR c
ENCODING 99
SWIDTH 524 0
DWIDTH 4 0
BBX 4 4 1 0
BITMAP
70
D0
80
E0
ENDCHAR

STARTCHAR d
ENCODING 100
SWIDTH 634 0
DWIDTH 5 0
BBX 5 7 1 0
BITMAP
18
08
08
70
50
B0
D8
ENDCHAR

STARTCHAR e
ENCODING 101
SWIDTH 548 0
DWIDTH 4 0
BBX 4 4 1 0
BITMAP
70
90
F0
E0
ENDCHAR

STARTCHAR f
ENCODING 102
SWIDTH 415 0
DWIDTH 3 0
BBX 4 9 0 -2
BITMAP
30
30
40
70
40
40
40
C0
80
ENDCHAR

STARTCHAR g
ENCODING 103
SWIDTH 628 0
DWIDTH 5 0
BBX 5 6 0 -2
BITMAP
38
58
B0
F0
90
E0
ENDCHAR

STARTCHAR h
ENCODING 104
SWIDTH 656 0
DWIDTH 5 0
BBX 5 7 1 0
BITMAP
40
40
40
78
F0
D0
98
ENDCHAR

STARTCHAR i
ENCODING 105
SWIDTH 319 0
DWIDTH 3 0
BBX 2 7 1 0
BITMAP
40
00
00
C0
40
80
C0
ENDCHAR

STARTCHAR j
ENCODING 106
SWIDTH 381 0
DWIDTH 3 0
BBX 4 9 0 -2
BITMAP
10
00
00
30
10
30
20
A0
C0
ENDCHAR

STARTCHAR k
ENCODING 107
SWIDTH 626 0
DWIDTH 5 0
BBX 4 7 1 0
BITMAP
40
40
40
50
D0
E0
90
ENDCHAR

STARTCHAR l
ENCODING 108
SWIDTH 319 0
DWIDTH 3 0
BBX 2 7 1 0
BITMAP
40
40
40
40
C0
80
C0
ENDCHAR

STARTCHAR m
ENCODING 109
SWIDTH 969 0
DWIDTH 8 0
BBX 7 4 1 0
BITMAP
F6
7A
DA
96
ENDCHAR

STARTCHAR n
ENCODING 110
SWIDTH 656 0
DWIDTH 5 0
BBX 5 4 1 0
BITMAP
F8
70
D0
98
ENDCHAR

STARTCHAR o
ENCODING 111
SWIDTH 599 0
DWIDTH 5 0
BBX 4 4 1 0
BITMAP
70
D0
90
E0
ENDCHAR

STARTCHAR p
ENCODING 112
SWIDTH 639 0
DWIDTH 5 0
BBX 5 6 0 -2
BITMAP
D8
68
50
70
80
80
ENDCHAR

STARTCHAR q
ENCODING 113
SWIDTH 630 0
DWIDTH 5 0
BBX 5 6 1 -2
BITMAP
78
50
B0
D0
10
30
ENDCHAR

STARTCHAR r
ENCODING 114
SWIDTH 496 0
DWIDTH 4 0
BBX 4 4 1 0
BITMAP
F0
60
C0
80
ENDCHAR

STARTCHAR s
ENCODING 115
SWIDTH 479 0
DWIDTH 4 0
BBX 4 4 0 0
BITMAP
70
50
A0
E0
ENDCHAR

STARTCHAR t
ENCODING 116
SWIDTH 375 0
DWIDTH 3 0
BBX 3 5 1 0
BITMAP
40
E0
40
80
C0
ENDCHAR

STARTCHAR u
ENCODING 117
SWIDTH 655 0
DWIDTH 5 0
BBX 5 4 1 0
BITMAP
D8
90
B0
D0
ENDCHAR

STARTCHAR v
ENCODING 118
SWIDTH 584 0
DWIDTH 5 0
BBX 5 4 1 0
BITMAP
D8
50
60
60
ENDCHAR

STARTCHAR w
ENCODING 119
SWIDTH 822 0
DWIDTH 7 0
BBX 6 4 1 0
BITMAP
D4
74
78
58
ENDCHAR

STARTCHAR x
ENCODING 120
SWIDTH 534 0
DWIDTH 4 0
BBX 4 4 0 0
BITMAP
50
50
E0
90
ENDCHAR

STARTCHAR y
ENCODING 121
SWIDTH 586 0
DWIDTH 5 0
BBX 5 6 0 -2
BITMAP
48
28
30
30
20
C0
ENDCHAR

STARTCHAR z
ENCODING 122
SWIDTH 567 0
DWIDTH 5 0
BBX 5 4 0 0
BITMAP
78
60
50
F0
ENDCHAR

STARTCHAR braceleft
ENCODING 123
SWIDTH 361 0
DWIDTH 3 0
BBX 3 8 1 -2
BITMAP
60
40
40
40
80
40
80
C0
ENDCHAR

STARTCHAR bar
ENCODING 124
SWIDTH 253 0
DWIDTH 2 0
BBX 2 8 0 -2
BITMAP
40
40
40
80
80
80
80
80
ENDCHAR

STARTCHAR braceright
ENCODING 125
SWIDTH 361 0
DWIDTH 3 0
BBX 3 8 0 -2
BITMAP
60
20
60
40
60
40
40
C0
ENDCHAR

STARTCHAR asciitilde
ENCODING 126
SWIDTH 636 0
DWIDTH 5 0
BBX 5 2 1 2
BITMAP
68
B0
ENDCHAR

STARTCHAR exclamdown
ENCODING 161
SWIDTH 265 0
DWIDTH 2 0
BBX 2 6 0 -2
BITMAP
40
00
40
40
80
80
ENDCHAR

STARTCHAR cent
ENCODING 162
SWIDTH 636 0
DWIDTH 5 0
BBX 4 6 1 0
BITMAP
10
70
F0
A0
F0
40
ENDCHAR

STARTCHAR sterling
ENCODING 163
SWIDTH 636 0
DWIDTH 5 0
BBX 5 6 1 0
BITMAP
38
68
60
40
40
F0
ENDCHAR

STARTCHAR currency
ENCODING 164
SWIDTH 636 0
DWIDTH 5 0
BBX 6 6 0 -1
BITMAP
4C
78
48
48
70
88
ENDCHAR

STARTCHAR yen
ENCODING 165
SWIDTH 636 0
DWIDTH 5 0
BBX 5 6 1 0
BITMAP
C8
48
50
70
F0
E0
ENDCHAR

STARTCHAR brokenbar
ENCODING 166
SWIDTH 253 0
DWIDTH 2 0
BBX 2 8 0 -2
BITMAP
40
40
40
40
00
80
80
80
ENDCHAR

STARTCHAR section
ENCODING 167
SWIDTH 636 0
DWIDTH 5 0
BBX 5 8 1 -2
BITMAP
38
50
60
70
50
20
90
E0
ENDCHAR

STARTCHAR dieresis
ENCODING 168
SWIDTH 599 0
DWIDTH 5 0
BBX 3 1 2 5
BITMAP
A0
ENDCHAR

STARTCHAR copyright
ENCODING 169
SWIDTH 853 0
DWIDTH 7 0
BBX 6 6 1 0
BITMAP
78
84
BC
D4
B4
78
ENDCHAR

STARTCHAR ordfeminine
ENCODING 170
SWIDTH 468 0
DWIDTH 4 0
BBX 3 3 1 3
BITMAP
60
A0
E0
ENDCHAR

STARTCHAR guillemotleft
ENCODING 171
SWIDTH 527 0
DWIDTH 4 0
BBX 4 4 0 0
BITMAP
50
E0
A0
60
ENDCHAR

STARTCHAR logicalnot
ENCODING 172
SWIDTH 636 0
DWIDTH 5 0
BBX 5 2 1 1
BITMAP
F8
10
ENDCHAR

STARTCHAR hyphen
ENCODING 173
SWIDTH 289 0
DWIDTH 2 0
BBX 2 1 1 2
BITMAP
C0
ENDCHAR

STARTCHAR registered
ENCODING 174
SWIDTH 636 0
DWIDTH 5 0
BBX 4 4 1 2
BITMAP
60
F0
F0
60
ENDCHAR

STARTCHAR macron
ENCODING 175
SWIDTH 599 0
DWIDTH 5 0
BBX 3 1 2 5
BITMAP
E0
ENDCHAR

STARTCHAR degree
ENCODING 176
SWIDTH 259 0
DWIDTH 2 0
BBX 2 2 1 4
BITMAP
C0
C0
ENDCHAR

STARTCHAR plusminus
ENCODING 177
SWIDTH 636 0
DWIDTH 5 0
BBX 5 4 0 0
BITMAP
20
78
20
F8
ENDCHAR

STARTCHAR twosuperior
ENCODING 178
SWIDTH 381 0
DWIDTH 3 0
BBX 3 4 -4 2
BITMAP
60
60
40
E0
ENDCHAR

STARTCHAR threesuperior
ENCODING 179
SWIDTH 381 0
DWIDTH 3 0
BBX 3 4 -4 2
BITMAP
E0
C0
A0
C0
ENDCHAR

STARTCHAR acute
ENCODING 180
SWIDTH 599 0
DWIDTH 5 0
BBX 1 1 3 5
BITMAP
80
ENDCHAR

STARTCHAR mu
ENCODING 181
SWIDTH 687 0
DWIDTH 5 0
BBX 5 6 1 -2
BITMAP
D8
58
70
78
80
80
ENDCHAR

STARTCHAR paragraph
ENCODING 182
SWIDTH 636 0
DWIDTH 5 0
BBX 4 8 1 -2
BITMAP
F0
E0
E0
60
60
60
60
E0
ENDCHAR

STARTCHAR periodcentered
ENCODING 183
SWIDTH 636 0
DWIDTH 5 0
BBX 1 1 2 2
BITMAP
80
ENDCHAR

STARTCHAR cedilla
ENCODING 184
SWIDTH 599 0
DWIDTH 5 0
BBX 1 2 1 -2
BITMAP
80
80
ENDCHAR

STARTCHAR onesuperior
ENCODING 185
SWIDTH 381 0
DWIDTH 3 0
BBX 2 4 -4 2
BITMAP
40
40
40
C0
ENDCHAR

STARTCHAR ordmasculine
ENCODING 186
SWIDTH 468 0
DWIDTH 4 0
BBX 4 3 1 3
BITMAP
60
B0
E0
ENDCHAR

STARTCHAR guillemotright
ENCODING 187
SWIDTH 527 0
DWIDTH 4 0
BBX 4 4 1 0
BITMAP
60
50
70
A0
ENDCHAR

STARTCHAR onequarter
ENCODING 188
SWIDTH 818 0
DWIDTH 7 0
BBX 7 6 1 0
BITMAP
46
48
54
E8
7C
CC
ENDCHAR

STARTCHAR onehalf
ENCODING 189
SWIDTH 818 0
DWIDTH 7 0
BBX 7 6 1 0
BITMAP
46
48
5C
EC
68
DC
ENDCHAR

STARTCHAR threequarters
ENCODING 190
SWIDTH 818 0
DWIDTH 7 0
BBX 7 6 1 0
BITMAP
E6
C8
B4
E8
7C
CC
ENDCHAR

STARTCHAR questiondown
ENCODING 191
SWIDTH 493 0
DWIDTH 4 0
BBX 4 6 0 -2
BITMAP
30
00
20
40
90
E0
ENDCHAR

STARTCHAR Agrave
ENCODING 192
SWIDTH 765 0
DWIDTH 6 0
BBX 6 7 0 0
BITMAP
10
18
38
28
78
CC
CC
ENDCHAR

STARTCHAR Aacute
ENCODING 193
SWIDTH 765 0
DWIDTH 6 0
BBX 6 7 0 0
BITMAP
08
18
38
28
78
CC
CC
ENDCHAR

STARTCHAR Acircumflex
ENCODING 194
SWIDTH 765 0
DWIDTH 6 0
BBX 6 8 0 0
BITMAP
08
14
18
38
28
78
CC
CC
ENDCHAR

STARTCHAR Atilde
ENCODING 195
SWIDTH 765 0
DWIDTH 6 0
BBX 6 7 0 0
BITMAP
1C
18
38
28
78
CC
CC
ENDCHAR

STARTCHAR Adieresis
ENCODING 196
SWIDTH 765 0
DWIDTH 6 0
BBX 6 7 0 0
BITMAP
14
18
38
28
78
CC
CC
ENDCHAR

STARTCHAR Aring
ENCODING 197
SWIDTH 765 0
DWIDTH 6 0
BBX 6 7 0 0
BITMAP
18
18
38
28
78
CC
CC
ENDCHAR

STARTCHAR AE
ENCODING 198
SWIDTH 958 0
DWIDTH 8 0
BBX 8 6 0 0
BITMAP
0F
1C
3E
78
48
9F
ENDCHAR

STARTCHAR Ccedilla
ENCODING 199
SWIDTH 740 0
DWIDTH 6 0
BBX 6 8 1 -2
BITMAP
3C
48
C0
80
C0
78
40
40
ENDCHAR

STARTCHAR Egrave
ENCODING 200
SWIDTH 630 0
DWIDTH 5 0
BBX 5 7 0 0
BITMAP
10
78
20
70
40
40
F8
ENDCHAR

STARTCHAR Eacute
ENCODING 201
SWIDTH 630 0
DWIDTH 5 0
BBX 5 7 0 0
BITMAP
10
78
20
70
40
40
F8
ENDCHAR

STARTCHAR Ecircumflex
ENCODING 202
SWIDTH 630 0
DWIDTH 5 0
BBX 5 8 0 0
BITMAP
10
28
78
20
70
40
40
F8
ENDCHAR

STARTCHAR Edieresis
ENCODING 203
SWIDTH 630 0
DWIDTH 5 0
BBX 5 7 0 0
BITMAP
28
78
20
70
40
40
F8
ENDCHAR

STARTCHAR Igrave
ENCODING 204
SWIDTH 372 0
DWIDTH 3 0
BBX 4 7 0 0
BITMAP
20
70
20
60
40
40
E0
ENDCHAR

STARTCHAR Iacute
ENCODING 205
SWIDTH 372 0
DWIDTH 3 0
BBX 4 7 0 0
BITMAP
20
70
20
60
40
40
E0
ENDCHAR

STARTCHAR Icircumflex
ENCODING 206
SWIDTH 372 0
DWIDTH 3 0
BBX 4 8 0 0
BITMAP
20
50
70
20
60
40
40
E0
ENDCHAR

STARTCHAR Idieresis
ENCODING 207
SWIDTH 372 0
DWIDTH 3 0
BBX 4 7 0 0
BITMAP
50
70
20
60
40
40
E0
ENDCHAR

STARTCHAR Eth
ENCODING 208
SWIDTH 822 0
DWIDTH 7 0
BBX 7 6 0 0
BITMAP
7C
24
66
F4
4C
F8
ENDCHAR

STARTCHAR Ntilde
ENCODING 209
SWIDTH 797 0
DWIDTH 6 0
BBX 7 7 0 0
BITMAP
1C
66
24
54
54
4C
C8
ENDCHAR

STARTCHAR Ograve
ENCODING 210
SWIDTH 831 0
DWIDTH 7 0
BBX 6 7 1 0
BITMAP
10
38
44
C4
84
88
70
ENDCHAR

STARTCHAR Oacute
ENCODING 211
SWIDTH 831 0
DWIDTH 7 0
BBX 6 7 1 0
BITMAP
10
38
44
C4
84
88
70
ENDCHAR

STARTCHAR Ocircumflex
ENCODING 212
SWIDTH 831 0
DWIDTH 7 0
BBX 6 8 1 0
BITMAP
10
28
38
44
C4
84
88
70
ENDCHAR

STARTCHAR Otilde
ENCODING 213
SWIDTH 831 0
DWIDTH 7 0
BBX 6 7 1 0
BITMAP
38
38
44
C4
84
88
70
ENDCHAR

STARTCHAR Odieresis
ENCODING 214
SWIDTH 831 0
DWIDTH 7 0
BBX 6 7 1 0
BITMAP
28
38
44
C4
84
88
70
ENDCHAR

STARTCHAR multiply
ENCODING 215
SWIDTH 636 0
DWIDTH 5 0
BBX 6 5 0 0
BITMAP
48
7C
20
50
88
ENDCHAR

STARTCHAR Oslash
ENCODING 216
SWIDTH 831 0
DWIDTH 7 0
BBX 8 6 1 0
BITMAP
3B
4C
DC
B4
E8
F0
ENDCHAR

STARTCHAR Ugrave
ENCODING 217
SWIDTH 775 0
DWIDTH 6 0
BBX 6 7 1 0
BITMAP
20
FC
48
C8
88
88
F0
ENDCHAR

STARTCHAR Uacute
ENCODING 218
SWIDTH 775 0
DWIDTH 6 0
BBX 6 7 1 0
BITMAP
20
EC
48
C8
88
88
F0
ENDCHAR

STARTCHAR Ucircumflex
ENCODING 219
SWIDTH 775 0
DWIDTH 6 0
BBX 6 8 1 0
BITMAP
10
28
EC
48
C8
88
88
F0
ENDCHAR

STARTCHAR Udieresis
ENCODING 220
SWIDTH 775 0
DWIDTH 6 0
BBX 6 7 1 0
BITMAP
28
EC
48
C8
88
88
F0
ENDCHAR

STARTCHAR Yacute
ENCODING 221
SWIDTH 669 0
DWIDTH 5 0
BBX 5 7 1 0
BITMAP
20
C8
48
50
20
40
E0
ENDCHAR

STARTCHAR Thorn
ENCODING 222
SWIDTH 628 0
DWIDTH 5 0
BBX 5 6 0 0
BITMAP
70
38
48
48
70
C0
ENDCHAR

STARTCHAR germandbls
ENCODING 223
SWIDTH 656 0
DWIDTH 5 0
BBX 5 9 0 -2
BITMAP
30
78
50
50
58
68
F0
80
80
ENDCHAR

STARTCHAR agrave
ENCODING 224
SWIDTH 634 0
DWIDTH 5 0
BBX 5 5 1 0
BITMAP
20
78
50
B0
D8
ENDCHAR

STARTCHAR aacute
ENCODING 225
SWIDTH 634 0
DWIDTH 5 0
BBX 5 5 1 0
BITMAP
20
78
50
B0
D8
ENDCHAR

STARTCHAR acircumflex
ENCODING 226
SWIDTH 634 0
DWIDTH 5 0
BBX 5 6 1 0
BITMAP
10
28
78
50
B0
D8
ENDCHAR

STARTCHAR atilde
ENCODING 227
SWIDTH 634 0
DWIDTH 5 0
BBX 5 5 1 0
BITMAP
38
78
50
B0
D8
ENDCHAR

STARTCHAR adieresis
ENCODING 228
SWIDTH 634 0
DWIDTH 5 0
BBX 5 5 1 0
BITMAP
28
78
50
B0
D8
ENDCHAR

STARTCHAR aring
ENCODING 229
SWIDTH 634 0
DWIDTH 5 0
BBX 5 5 1 0
BITMAP
30
78
50
B0
D8
ENDCHAR

STARTCHAR ae
ENCODING 230
SWIDTH 905 0
DWIDTH 7 0
BBX 7 4 1 0
BITMAP
7E
52
BE
FC
ENDCHAR

STARTCHAR ccedilla
ENCODING 231
SWIDTH 524 0
DWIDTH 4 0
BBX 4 6 1 -2
BITMAP
70
D0
80
E0
80
80
ENDCHAR

STARTCHAR egrave
ENCODING 232
SWIDTH 548 0
DWIDTH 4 0
BBX 4 5 1 0
BITMAP
20
70
90
F0
E0
ENDCHAR

STARTCHAR eacute
ENCODING 233
SWIDTH 548 0
DWIDTH 4 0
BBX 4 5 1 0
BITMAP
20
70
90
F0
E0
ENDCHAR

STARTCHAR ecircumflex
ENCODING 234
SWIDTH 548 0
DWIDTH 4 0
BBX 4 6 1 0
BITMAP
20
50
70
90
F0
E0
ENDCHAR

STARTCHAR edieresis
ENCODING 235
SWIDTH 548 0
DWIDTH 4 0
BBX 5 5 1 0
BITMAP
28
70
90
F0
E0
ENDCHAR

STARTCHAR igrave
ENCODING 236
SWIDTH 319 0
DWIDTH 3 0
BBX 3 5 1 0
BITMAP
40
E0
40
80
C0
ENDCHAR

STARTCHAR iacute
ENCODING 237
SWIDTH 319 0
DWIDTH 3 0
BBX 2 5 1 0
BITMAP
40
C0
40
80
C0
ENDCHAR

STARTCHAR icircumflex
ENCODING 238
SWIDTH 319 0
DWIDTH 3 0
BBX 3 6 1 0
BITMAP
40
A0
C0
40
80
C0
ENDCHAR

STARTCHAR idieresis
ENCODING 239
SWIDTH 319 0
DWIDTH 3 0
BBX 4 5 1 0
BITMAP
50
C0
40
80
C0
ENDCHAR

STARTCHAR eth
ENCODING 240
SWIDTH 617 0
DWIDTH 5 0
BBX 4 6 1 0
BITMAP
70
30
70
90
90
E0
ENDCHAR

STARTCHAR ntilde
ENCODING 241
SWIDTH 656 0
DWIDTH 5 0
BBX 5 5 1 0
BITMAP
38
F8
70
D0
98
ENDCHAR

STARTCHAR ograve
ENCODING 242
SWIDTH 599 0
DWIDTH 5 0
BBX 4 5 1 0
BITMAP
20
70
D0
90
E0
ENDCHAR

STARTCHAR oacute
ENCODING 243
SWIDTH 599 0
DWIDTH 5 0
BBX 4 5 1 0
BITMAP
20
70
D0
90
E0
ENDCHAR

STARTCHAR ocircumflex
ENCODING 244
SWIDTH 599 0
DWIDTH 5 0
BBX 5 6 1 0
BITMAP
10
28
70
D0
90
E0
ENDCHAR

STARTCHAR otilde
ENCODING 245
SWIDTH 599 0
DWIDTH 5 0
BBX 5 5 1 0
BITMAP
38
70
D0
90
E0
ENDCHAR

STARTCHAR odieresis
ENCODING 246
SWIDTH 599 0
DWIDTH 5 0
BBX 5 5 1 0
BITMAP
28
70
D0
90
E0
ENDCHAR

STARTCHAR divide
ENCODING 247
SWIDTH 636 0
DWIDTH 5 0
BBX 5 4 1 0
BITMAP
20
00
F8
40
ENDCHAR

STARTCHAR oslash
ENCODING 248
SWIDTH 599 0
DWIDTH 5 0
BBX 6 4 1 0
BITMAP
7C
F0
F0
E0
ENDCHAR

STARTCHAR ugrave
ENCODING 249
SWIDTH 655 0
DWIDTH 5 0
BBX 5 5 1 0
BITMAP
20
D8
90
B0
D0
ENDCHAR

STARTCHAR uacute
ENCODING 250
SWIDTH 655 0
DWIDTH 5 0
BBX 5 5 1 0
BITMAP
20
D8
90
B0
D0
ENDCHAR

STARTCHAR ucircumflex
ENCODING 251
SWIDTH 655 0
DWIDTH 5 0
BBX 5 6 1 0
BITMAP
10
28
D8
90
B0
D0
ENDCHAR

STARTCHAR udieresis
ENCODING 252
SWIDTH 655 0
DWIDTH 5 0
BBX 5 5 1 0
BITMAP
28
D8
90
B0
D0
ENDCHAR

STARTCHAR yacute
ENCODING 253
SWIDTH 586 0
DWIDTH 5 0
BBX 5 7 0 -2
BITMAP
10
48
28
30
30
20
C0
ENDCHAR

STARTCHAR thorn
ENCODING 254
SWIDTH 639 0
DWIDTH 5 0
BBX 5 7 0 -2
BITMAP
60
58
68
50
70
80
80
ENDCHAR

STARTCHAR ydieresis
ENCODING 255
SWIDTH 586 0
DWIDTH 5 0
BBX 5 7 0 -2
BITMAP
28
48
28
30
30
20
C0
ENDCHAR
ENDFONT
